HIERARCHY
ROOT Hips
{
	OFFSET 0.000000 0.000000 0.000000
	CHANNELS 6 Xposition Yposition Zposition Zrotation Yrotation Xrotation 
	JOINT LHipJoint
	{
		OFFSET 0.000000 0.000000 0.000000
		CHANNELS 3 Zrotation Yrotation Xrotation
		JOINT LeftUpLeg
		{
			OFFSET 1.363060 -1.794630 0.839290
			CHANNELS 3 Zrotation Yrotation Xrotation
			JOINT LeftLeg
			{
				OFFSET 2.448110 -6.726130 0.000000
				CHANNELS 3 Zrotation Yrotation Xrotation
				JOINT LeftFoot
				{
					OFFSET 2.562200 -7.039590 0.000000
					CHANNELS 3 Zrotation Yrotation Xrotation
					JOINT LeftToeBase
					{
						OFFSET 0.157640 -0.433110 2.322550
						CHANNELS 3 Zrotation Yrotation Xrotation
						End Site
						{
							OFFSET 0.000000 0.000000 0.000000
						}
					}
				}
			}
		}
	}
	JOINT RHipJoint
	{
		OFFSET 0.000000 0.000000 0.000000
		CHANNELS 3 Zrotation Yrotation Xrotation
		JOINT RightUpLeg
		{
			OFFSET -1.305520 -1.794630 0.839290
			CHANNELS 3 Zrotation Yrotation Xrotation
			JOINT RightLeg
			{
				OFFSET -2.542530 -6.985550 0.000000
				CHANNELS 3 Zrotation Yrotation Xrotation
				JOINT RightFoot
				{
					OFFSET -2.568260 -7.056230 0.000000
					CHANNELS 3 Zrotation Yrotation Xrotation
					JOINT RightToeBase
					{
						OFFSET -0.164730 -0.452590 2.363150
						CHANNELS 3 Zrotation Yrotation Xrotation
						End Site
						{
							OFFSET 0.000000 0.000000 0.000000
						}
					}
				}
			}
		}
	}
}
MOTION
Frames: 16
Frame Time: 0.008333
9.793724 21.362609 0.904813 63.401419 -85.055152 -31.196278 -9.808628 0.891360 1.853743 -10.898846 -1.143189 -50.445720 0.249526 2.548001 53.216528 2.640530 15.463527 10.580277 5.040099 0.000000 -51.788500 11.470619 1.043011 0.341462 3.166579 -7.694684 -49.490313 -0.583075 -4.047124 58.825668 -1.432431 -5.967855 3.906109 -1.401500 0.000000 -76.601600
9.718109 21.503933 0.879063 65.138534 -85.012557 -31.683095 -9.634644 0.589089 1.667779 -11.658673 -1.492078 -54.864648 0.396207 2.984986 57.808119 2.809641 16.072826 7.238055 4.483500 -0.000001 -49.855800 11.431089 1.467383 0.461871 3.170475 -6.912432 -53.980701 -0.854250 -4.519570 63.744737 -1.492376 -6.147170 0.827954 -1.148300 0.000001 -75.507500
9.644345 21.630872 0.856255 66.228240 -85.019865 -31.412445 -9.469994 0.265253 1.539082 -12.248239 -2.015323 -59.471301 0.593567 3.434007 62.206903 2.981363 16.587146 4.327293 3.928800 0.000000 -47.898600 11.352002 1.876502 0.619061 3.230574 -6.025633 -58.628826 -1.166272 -4.989862 68.400052 -1.545120 -6.262036 -1.847809 -0.902800 -0.000000 -74.484700
9.570088 21.742763 0.835273 67.111309 -85.051179 -30.837105 -9.300963 -0.061898 1.475444 -12.704479 -2.722032 -64.212601 0.835309 3.884222 66.345892 3.148393 17.019563 1.851049 3.413100 -0.000001 -45.911700 11.245292 2.278195 0.819562 3.268860 -5.074625 -63.427751 -1.517330 -5.455650 72.786642 -1.582415 -6.277116 -4.171277 -0.669100 -0.000000 -73.365200
9.495261 21.839440 0.816362 67.825938 -85.114624 -30.023678 -9.126812 -0.389921 1.466380 -13.006602 -3.574134 -69.044933 1.115666 4.329809 70.200554 3.302614 17.362114 -0.205573 2.956000 0.000000 -44.013800 11.108768 2.669340 1.057898 3.268200 -4.058389 -68.335824 -1.902688 -5.910463 76.884700 -1.605061 -6.209715 -6.173600 -0.458500 0.000000 -72.203700
9.421214 21.922311 0.800209 68.264036 -85.226015 -28.917141 -8.951371 -0.721074 1.483642 -13.129370 -4.501927 -73.889171 1.425717 4.766816 73.751782 3.435509 17.600424 -1.882486 2.562400 0.000001 -42.266800 10.937421 3.044144 1.307973 3.236738 -2.987600 -73.261746 -2.311673 -6.346844 80.661852 -1.616354 -6.088911 -7.885820 -0.276800 0.000000 -71.134400
9.346456 21.991405 0.785944 68.657047 -85.373434 -27.775465 -8.769884 -1.040358 1.516646 -13.110753 -5.466034 -78.687466 1.752351 5.190730 76.979775 3.542005 17.725287 -3.248172 2.227400 0.000000 -40.721100 10.740163 3.401373 1.566436 3.141717 -1.892221 -78.166301 -2.734188 -6.762120 84.116487 -1.616351 -5.916106 -9.380209 -0.120300 -0.000000 -70.072400
9.271376 22.047792 0.773362 69.016866 -85.557259 -26.656594 -8.584183 -1.342372 1.541504 -12.973589 -6.409575 -83.361754 2.082492 5.599308 79.873752 3.617464 17.724882 -4.369637 1.939499 0.000000 -39.400700 10.519617 3.736742 1.811634 2.991889 -0.799312 -82.971430 -3.156388 -7.152737 87.231617 -1.608972 -5.712911 -10.706389 0.014200 0.000000 -69.054400
9.195580 22.092820 0.762038 69.394682 -85.773133 -25.645096 -8.395869 -1.619810 1.541958 -12.755757 -7.290571 -87.844977 2.402820 5.990860 82.425359 3.659264 17.591133 -5.309127 1.686400 0.000000 -38.325000 10.280869 4.045817 2.028539 2.800375 0.266136 -87.614186 -3.564214 -7.516788 89.996323 -1.598285 -5.497028 -11.912762 0.131199 0.000000 -68.078900
9.118629 22.127843 0.751606 69.813330 -86.016931 -24.790626 -8.207363 -1.867248 1.507543 -12.495163 -8.080517 -92.080836 2.701090 6.364060 84.628532 3.666242 17.319946 -6.112687 1.459200 -0.000000 -37.509500 10.028751 4.323805 2.205198 2.590790 1.286534 -92.040104 -3.943573 -7.853341 92.399947 -1.588874 -5.286363 -13.035896 0.235600 -0.000000 -67.148300
9.039815 22.154154 0.741835 70.269839 -86.285241 -24.104285 -8.021730 -2.081135 1.435432 -12.222108 -8.764600 -96.028053 2.966655 6.717259 86.477685 3.638652 16.912962 -6.802871 1.255500 -0.000000 -36.975100 9.767935 4.565589 2.334878 2.391469 2.253779 -96.206866 -4.280918 -8.162169 94.431355 -1.584982 -5.095775 -14.098310 0.331400 -0.000000 -66.269900
8.958290 22.172679 0.732571 70.729457 -86.575872 -23.556041 -7.842551 -2.259929 1.330680 -11.954191 -9.339098 -99.661428 3.190845 7.047973 87.966660 3.577757 16.377434 -7.375242 1.080200 0.000000 -36.752100 9.502769 4.765623 2.416719 2.231247 3.169623 -100.083828 -4.563866 -8.443264 96.078927 -1.589906 -4.935662 -15.106867 0.421200 -0.000000 -65.456301
8.873151 22.184345 0.723795 71.131006 -86.888393 -23.081347 -7.673840 -2.404004 1.204712 -11.693680 -9.806879 -102.968264 3.367035 7.352419 89.087891 3.485871 15.727564 -7.800893 0.943700 0.000001 -36.873000 9.237545 4.918333 2.454967 2.134778 4.042962 -103.648812 -4.781239 -8.696538 97.329273 -1.604980 -4.808368 -16.053796 0.506300 -0.000000 -64.727900
8.783354 22.189557 0.715632 71.397423 -87.223433 -22.591042 -7.520208 -2.515045 1.073833 -11.430065 -10.173901 -105.945482 3.490732 7.625696 89.833718 3.366271 14.983969 -8.033949 0.858200 -0.000000 -37.364400 8.977020 5.018481 2.458821 2.117329 4.885322 -106.885661 -4.923767 -8.921610 98.169451 -1.629153 -4.707543 -16.918837 0.585300 0.000000 -64.113900
8.688196 22.188922 0.708210 71.422989 -87.582230 -21.968853 -7.386026 -2.596571 0.955290 -11.141452 -10.445587 -108.595166 3.559616 7.861989 90.196630 3.223434 14.174180 -8.021096 0.834200 -0.000000 -38.237000 8.725738 5.062950 2.438954 2.184682 5.707552 -109.780429 -4.984251 -9.117674 98.586962 -1.658589 -4.617669 -17.671896 0.654400 0.000000 -63.648800
8.586938 22.182423 0.701659 71.105731 -87.964461 -21.099207 -7.276090 -2.652380 0.866399 -10.803791 -10.625765 -110.916252 3.573109 8.054910 90.170501 3.062798 13.329588 -7.712731 0.876500 -0.000001 -39.477200 8.488957 5.050355 2.408437 2.331083 6.514887 -112.317765 -4.958142 -9.283085 98.572239 -1.686604 -4.514434 -18.276844 0.707100 -0.000000 -63.372300
